inDegrees=no
num_controls=7
num_derivatives=13
num_iterations=54
num_multipliers=7
num_parameters=0
num_slacks=7
num_states=26
objective=0.427308
objective_accelerations=0.057158
objective_balance=0.001194
objective_effort=0.014815
objective_height=0.348162
objective_ligament=0.005979
solver_duration=752.604045
status=Solve_Succeeded
success=true
DataType=double
version=3
OpenSimVersion=4.5
endheader
time	/jointset/ground_pelvis/pelvis_tilt/value	/jointset/ground_pelvis/pelvis_tx/value	/jointset/ground_pelvis/pelvis_ty/value	/jointset/hip_l/hip_flexion_l/value	/jointset/hip_l/hip_adduction_l/value	/jointset/hip_l/hip_rotation_l/value	/jointset/back/lumbar_extension/value	/jointset/patellofemoral_l/patellar_flexion_l/value	/jointset/knee_l/knee_flexion_l/value	/jointset/knee_l/knee_adduction_l/value	/jointset/knee_l/knee_rotation_l/value	/jointset/ankle_l/ankle_angle_l/value	/jointset/subtalar_l/subtalar_angle_l/value	/jointset/ground_pelvis/pelvis_tilt/speed	/jointset/ground_pelvis/pelvis_tx/speed	/jointset/ground_pelvis/pelvis_ty/speed	/jointset/hip_l/hip_flexion_l/speed	/jointset/hip_l/hip_adduction_l/speed	/jointset/hip_l/hip_rotation_l/speed	/jointset/back/lumbar_extension/speed	/jointset/patellofemoral_l/patellar_flexion_l/speed	/jointset/knee_l/knee_flexion_l/speed	/jointset/knee_l/knee_adduction_l/speed	/jointset/knee_l/knee_rotation_l/speed	/jointset/ankle_l/ankle_angle_l/speed	/jointset/subtalar_l/subtalar_angle_l/speed	/forceset/tau_hip_flexion_l	/forceset/tau_hip_adduction_l	/forceset/tau_hip_rotation_l	/forceset/tau_knee_flexion_l	/forceset/tau_ankle_angle_l	/forceset/tau_subtalar_angle_l	/forceset/tau_lumbar_extension	lambda_cid13_p0	lambda_cid13_p1	lambda_cid13_p2	lambda_cid13_p3	lambda_cid13_p4	lambda_cid13_p5	lambda_cid14_p0	/jointset/ground_pelvis/pelvis_tilt/accel	/jointset/ground_pelvis/pelvis_tx/accel	/jointset/ground_pelvis/pelvis_ty/accel	/jointset/hip_l/hip_flexion_l/accel	/jointset/hip_l/hip_adduction_l/accel	/jointset/hip_l/hip_rotation_l/accel	/jointset/back/lumbar_extension/accel	/jointset/patellofemoral_l/patellar_flexion_l/accel	/jointset/knee_l/knee_flexion_l/accel	/jointset/knee_l/knee_adduction_l/accel	/jointset/knee_l/knee_rotation_l/accel	/jointset/ankle_l/ankle_angle_l/accel	/jointset/subtalar_l/subtalar_angle_l/accel	gamma_cid13_p0	gamma_cid13_p1	gamma_cid13_p2	gamma_cid13_p3	gamma_cid13_p4	gamma_cid13_p5	gamma_cid14_p0
1	-0.4272551296950899	-0.0008825529064431603	0.601881216297474	1.659596963031853	-0.3477322862590219	0.1295957550792919	-0.4361985562229628	1.493782758762211	1.493782758762693	0.05982915228595905	-0.1744299250682573	0.4350598090428553	0.2475436936121326	-0.1574190624988978	-0.004952117050301249	0.01534391556537978	0.09186789960870911	0.003515527220400917	-0.03911915613778611	-0.0008384863341194828	-0.1080675049407776	-0.1080675049407788	-0.0006432796201665047	0.0002839876841056385	-0.05212865467856802	-0.02591038556989755	-0.2298503764040648	0.07215809371096406	-0.01233895145104299	-0.2902492887076875	-0.02773254708901321	-0.006268524740500519	0.2027959017562624	-43.50909166325344	19.11489028613637	-13.35085696674833	9.097766970313836	-538.42302753695	-41.54626345145751	-0.02392667167717542	1.484076280201454	0.1259562062143932	1.913521981550871	-6.278308835408436	-0.1634533423545896	-1.512217201944267	-0.1012625416549885	-5.436164296086108	-5.436164296086094	-0.7953477738853449	-0.01284443309842398	-1.11624552616812	-0.9310039691442179	-7.902317347642642e-10	-9.145682497280402e-08	-3.253097746736729e-08	-4.888186251862034e-09	1.734404802806258e-10	-1.224694665204684e-07	3.502083737145635e-09
1.01	-0.4287562455403492	-0.0009257766259889095	0.6021300697926882	1.660203270963144	-0.3477047703477178	0.1291306792796793	-0.4362104833417729	1.492430735181886	1.492430735181862	0.05978211941601915	-0.1744263354050168	0.4344827386800197	0.2472389578260216	-0.1428435631656284	-0.003687794004485875	0.03441266868772096	0.02945598841815854	0.001993562829145749	-0.05389547146376276	-0.001479377469127217	-0.1623247602760095	-0.1623247602760049	-0.008746897421353069	0.0004383862613230289	-0.06329228385141715	-0.03502429803555096	-0.2303560121633823	0.07211069488149945	-0.01237103628932171	-0.2893155459942657	-0.02802087438186068	-0.006242101422193143	0.2030875196668879	-43.56318523486753	19.06642537127005	-13.29006120686468	8.997185437304427	-538.2460754579569	-41.4526067907934	-0.02394001046618616	1.438368936954302	0.1273928172963357	1.901434236392324	-6.213286271624326	-0.1456735959599245	-1.460263586388081	-0.03536840482556877	-5.418639414916099	-5.418639414915472	-0.8154181365874378	0.03022960855329416	-1.117457435511769	-0.8996874384369731	-4.958643618705233e-10	-1.279189431179927e-07	-5.103725465556678e-08	-1.224790310409875e-08	-2.585584205015888e-09	-1.65689223872153e-07	4.440424884246537e-09
1.02	-0.4301127899568519	-0.000956212622371416	0.6025691872708892	1.66018732898037	-0.3476922952020133	0.1285178553491198	-0.4362267925729869	1.490536512395673	1.490536512395161	0.05965454049730939	-0.1744210722349228	0.4337938248609101	0.2468434624046233	-0.1285047767497725	-0.002394572417652881	0.05339671216278148	-0.03258208320225084	0.0005073740999118274	-0.06866878232828437	-0.001714908820187751	-0.2165073461182137	-0.2165073461182047	-0.01675248935660429	0.0006186890554036369	-0.07449734593100329	-0.04406231262764216	-0.2308616479228258	0.07206329605208635	-0.0124031211278677	-0.2883818032808311	-0.0283092016746594	-0.00621567810376586	0.2033791375773958	-43.62046144280906	19.01537308066175	-13.22526077937741	8.900185743427915	-538.180005871527	-41.36498202215838	-0.02395609897675827	1.43673369671888	0.1317359144178533	1.896580052094729	-6.203540921380166	-0.1562982099503238	-1.511616309653134	-0.02019058486512428	-5.421230397480553	-5.421230397480797	-0.7757426006983899	-0.007663589725777645	-1.124532107515637	-0.9158243944318282	-2.231624530802485e-09	-1.6219377781371e-07	-6.762703083254219e-08	-1.546930991084766e-08	-8.380816516401415e-09	-2.008079242710513e-07	4.915406238776871e-09
1.03	-0.4313263239908613	-0.0009734743461264541	0.6031978058172714	1.65955189148752	-0.3476945262169659	0.1277573052513304	-0.4362442142010642	1.488100756284066	1.488100756284081	0.05944737562543136	-0.1744138860410939	0.4329927570725152	0.2463580208663325	-0.1141613691014488	-0.001043132744298141	0.07232127412311802	-0.09454100809521281	-0.0009510933322408339	-0.08343739451842383	-0.001779708465944834	-0.2706396443283682	-0.2706396443283466	-0.02467207124126661	0.000820048212187311	-0.08571311670889434	-0.05301018794888272	-0.2312983865697284	0.07206050068031125	-0.01240534409784521	-0.2873631009557107	-0.02846478870264245	-0.006191352658372242	0.203647672701778	-43.62428862393518	18.9545703325264	-13.15741772920213	8.720783359310515	-538.0349224556724	-41.26644629566888	-0.02397531642444615	1.439243839894649	0.1390401829313304	1.889532942661801	-6.197406903326026	-0.1402334954202884	-1.458915915779156	-0.001168403913728712	-5.408595831488423	-5.408595831486626	-0.7988192222817615	0.03423119977721747	-1.119645002211362	-0.8818566056576846	-3.988100286895947e-09	-1.964462932905551e-07	-8.419725087674999e-08	-1.864848906407115e-08	-1.420703053825725e-08	-2.358439608234925e-07	5.385659432158524e-09
